<?xml version="1.0" standalone="no"?>
<!DOCTYPE svg PUBLIC "-//W3C//DTD SVG 20010904//EN"
 "http://www.w3.org/TR/2001/REC-SVG-20010904/DTD/svg10.dtd">
<svg version="1.0" xmlns="http://www.w3.org/2000/svg"
 width="200.000000pt" height="213.000000pt" viewBox="0 0 200.000000 213.000000"
 preserveAspectRatio="xMidYMid meet">

<g transform="translate(0.000000,213.000000) scale(0.100000,-0.100000)"
fill="#000000" stroke="none">
<path d="M12 2114 c12 -13 20 -14 37 -5 14 8 21 8 21 1 0 -6 -11 -16 -25 -22
-32 -15 -32 -30 0 -22 20 5 25 2 26 -12 0 -11 2 -35 4 -54 3 -29 -1 -39 -27
-61 -31 -26 -31 -26 -28 -120 4 -171 8 -219 18 -232 6 -7 31 -18 57 -26 67
-20 73 -35 78 -188 4 -129 3 -133 -17 -133 -25 0 -86 -17 -105 -29 -11 -7 -9
-13 8 -30 l21 -21 15 30 c16 31 32 42 21 15 -3 -9 0 -15 9 -15 8 0 15 -9 15
-20 0 -13 7 -20 20 -20 28 0 35 -23 15 -53 -16 -24 -15 -26 6 -37 l22 -12 -29
-23 c-23 -18 -26 -25 -16 -37 15 -18 6 -28 -25 -28 -24 0 -31 14 -13 25 5 3
10 19 10 34 0 39 -36 70 -79 67 -43 -2 -55 -26 -14 -26 33 -1 63 -21 63 -42 0
-17 -29 -46 -31 -32 -1 5 -2 15 -3 23 -1 18 -33 38 -43 28 -4 -4 -2 -17 5 -27
6 -11 10 -25 7 -32 -11 -33 -17 -92 -20 -201 -1 -65 -5 -121 -9 -124 -10 -11
-7 -23 7 -23 6 0 19 -15 26 -32 8 -18 36 -62 62 -98 57 -78 65 -120 30 -168
-17 -24 -30 -32 -53 -32 -25 0 -29 3 -23 18 8 20 8 20 6 55 -1 18 -6 27 -18
27 -15 0 -15 1 2 13 10 8 15 19 11 25 -10 16 -42 15 -44 0 -4 -48 -4 -160 1
-164 9 -10 57 -12 63 -2 3 4 10 6 15 2 5 -3 7 -10 3 -15 -10 -16 -11 -82 -3
-106 8 -23 -5 -41 -16 -23 -3 5 -11 10 -17 10 -7 0 -6 -5 1 -14 13 -15 -1 -32
-18 -21 -14 8 -22 -10 -26 -60 l-5 -45 748 0 748 0 2 30 c2 29 1 29 -25 17
-21 -9 -27 -9 -31 1 -2 7 -8 10 -12 7 -13 -8 -60 5 -60 16 0 5 21 9 47 9 55 0
129 33 138 61 11 33 65 89 109 111 62 32 159 34 216 6 40 -21 45 -27 48 -61 4
-48 27 -44 27 4 0 26 4 34 18 33 9 -1 17 4 17 11 0 7 -8 11 -17 9 -10 -2 -40
8 -68 24 l-50 28 1 52 c1 29 6 58 11 65 6 6 27 56 47 109 37 97 37 98 37 248
0 83 -3 155 -6 160 -3 5 5 21 19 35 30 29 31 35 13 35 -20 0 -44 -31 -49 -60
-4 -21 -6 -22 -12 -7 -13 27 1 63 30 75 14 7 30 10 35 7 5 -4 9 -1 9 5 0 18
-29 23 -60 10 -31 -13 -47 -46 -41 -84 2 -16 -2 -18 -30 -12 -41 8 -48 14 -29
27 13 8 13 11 -2 23 -20 15 -14 26 15 26 16 0 17 3 7 15 -15 17 -3 38 17 31
23 -9 35 4 18 20 -8 9 -13 19 -10 24 5 9 37 6 54 -5 9 -5 61 39 61 50 0 3 -27
5 -60 5 -33 0 -60 -4 -60 -8 0 -4 16 -6 35 -4 21 3 35 0 35 -7 0 -6 -16 -11
-36 -11 -23 0 -42 -7 -51 -17 -12 -16 -13 -9 -9 57 3 41 5 94 6 117 0 33 6 48
27 68 15 14 37 24 48 24 17 -1 17 -2 3 -6 -33 -8 -18 -23 21 -20 34 2 38 5 39
30 1 36 -14 41 -67 22 -46 -16 -91 -59 -91 -86 0 -21 -9 -29 -26 -22 -21 8
-17 25 13 61 42 52 94 79 151 81 15 1 22 7 22 22 0 15 -5 20 -22 17 -21 -3
-23 2 -26 49 -2 41 2 59 19 82 21 29 24 46 18 121 -2 20 0 43 3 52 5 12 -1 19
-24 27 -50 18 -69 39 -55 62 6 10 20 19 31 19 16 0 16 -2 5 -16 -10 -13 -10
-17 2 -25 15 -9 49 -12 49 -4 0 3 -6 15 -12 26 -10 17 -10 23 0 26 21 8 13 23
-13 23 -29 0 -75 40 -75 65 0 30 27 47 65 39 23 -4 35 -2 35 5 0 6 -13 11 -28
11 -16 0 -37 9 -47 20 -21 23 -11 25 25 5 30 -17 50 -19 50 -5 0 6 -9 10 -20
10 -11 0 -20 5 -20 11 0 6 9 9 20 6 16 -4 20 0 20 19 l0 24 -1002 0 c-912 0
-1000 -2 -986 -16z m144 -37 c20 -18 27 -33 28 -66 1 -36 -4 -47 -28 -66 -15
-12 -39 -22 -52 -22 -28 0 -29 5 -9 31 17 23 20 83 5 120 -8 22 -7 26 10 26
10 0 31 -10 46 -23z m838 7 c3 -8 2 -13 -3 -10 -5 3 -21 -12 -36 -34 -29 -43
-71 -71 -146 -99 -70 -27 -236 -28 -310 -2 -75 26 -169 87 -169 110 0 18 15
13 39 -13 12 -13 50 -36 84 -51 34 -14 70 -30 79 -35 9 -5 63 -8 120 -6 150 6
266 56 307 134 14 26 26 28 35 6z m865 -76 c19 2 22 0 12 -12 -9 -11 -9 -15 1
-19 7 -3 3 -6 -8 -6 -27 -1 -54 38 -54 77 0 47 15 47 20 0 4 -38 8 -43 29 -40z
m21 78 c0 -11 -19 -15 -25 -6 -3 5 1 10 9 10 9 0 16 -2 16 -4z m-1570 -54 c0
-32 -41 -124 -76 -169 -13 -17 -24 -36 -24 -42 0 -6 -5 -11 -12 -11 -6 0 -19
-7 -28 -15 -20 -18 -61 -24 -66 -10 -3 6 9 19 26 28 16 10 30 25 30 33 0 8 4
14 10 14 17 0 87 104 106 157 19 54 34 60 34 15z m364 29 c27 -10 31 -48 6
-61 -39 -21 -79 27 -48 58 13 13 15 14 42 3z m372 -30 c30 -30 156 -98 190
-104 10 -1 24 -5 29 -9 18 -10 118 -22 185 -21 83 1 122 9 188 39 62 28 62 28
62 9 0 -39 -112 -75 -240 -76 -105 0 -184 13 -244 42 -42 20 -66 24 -66 11 0
-4 -16 -9 -36 -10 -21 -2 -33 1 -30 7 4 5 15 8 25 6 10 -2 23 0 30 4 8 5 -7
19 -43 41 -30 19 -64 46 -76 62 -27 36 -12 36 26 -1z m827 9 c3 -12 0 -20 -7
-20 -6 0 -12 9 -12 20 0 11 3 20 7 20 4 0 9 -9 12 -20z m-417 -4 c25 -19 10
-47 -32 -58 -33 -9 -57 12 -47 40 13 34 46 41 79 18z m376 -182 c32 -40 69
-81 83 -90 14 -9 25 -20 25 -25 0 -15 -34 4 -86 48 -28 24 -60 43 -70 43 -15
0 -16 2 -5 9 11 7 10 14 -8 39 -28 39 -52 98 -44 106 4 3 16 -8 27 -25 12 -17
47 -64 78 -105z m-1452 123 c0 -1 -9 -10 -20 -20 -16 -13 -20 -14 -20 -3 0 8
8 17 18 19 9 3 18 5 20 6 1 0 2 0 2 -2z m-60 -23 c0 -8 -5 -12 -10 -9 -6 4 -8
11 -5 16 9 14 15 11 15 -7z m623 -1 c-7 -2 -21 -2 -30 0 -10 3 -4 5 12 5 17 0
24 -2 18 -5z m142 -13 c-3 -5 -11 -10 -16 -10 -6 0 -7 5 -4 10 3 6 11 10 16
10 6 0 7 -4 4 -10z m-188 -6 c-3 -3 -12 -4 -19 -1 -8 3 -5 6 6 6 11 1 17 -2
13 -5z m-497 -14 c0 -5 -4 -10 -10 -10 -5 0 -10 5 -10 10 0 6 5 10 10 10 6 0
10 -4 10 -10z m53 -7 c-7 -2 -21 -2 -30 0 -10 3 -4 5 12 5 17 0 24 -2 18 -5z
m546 3 c-7 -7 -149 -10 -156 -3 -3 4 31 7 77 7 46 0 81 -2 79 -4z m57 -50 c-2
-19 -15 -48 -29 -65 -38 -46 -41 -64 -14 -113 15 -26 23 -56 22 -76 -4 -45 10
-48 35 -6 19 29 21 44 16 84 -6 46 -4 51 23 76 40 36 56 76 41 104 -6 12 -9
24 -7 27 9 8 35 -51 31 -71 -1 -11 -11 -31 -21 -45 -15 -21 -17 -36 -12 -76 4
-27 3 -72 -2 -99 -11 -60 -11 -56 1 -56 13 0 60 105 60 134 0 27 27 66 45 66
7 0 27 12 44 26 44 37 41 5 -3 -40 -25 -24 -33 -40 -29 -55 3 -12 -2 -33 -12
-47 -18 -27 -28 -104 -14 -104 5 0 13 8 18 18 5 10 28 31 50 47 26 17 41 36
41 49 0 31 11 42 55 57 22 7 48 19 57 27 15 13 17 12 15 -8 -1 -14 -14 -28
-38 -40 -35 -18 -76 -66 -65 -77 3 -3 -6 -22 -19 -42 -13 -21 -25 -49 -27 -62
-2 -19 -9 -24 -33 -24 -23 0 -31 -5 -33 -22 -2 -13 -8 -24 -13 -24 -34 -5 -99
-32 -99 -42 0 -5 6 -7 14 -4 10 4 16 -8 21 -46 7 -57 18 -77 52 -95 32 -17 39
-15 82 23 21 19 53 38 70 41 46 9 48 24 4 24 -35 0 -151 47 -152 62 -2 12 44
-5 72 -29 16 -12 35 -23 43 -23 12 0 12 4 -2 25 -9 14 -23 25 -30 25 -8 0 -14
5 -14 10 0 6 9 10 21 10 26 0 59 17 59 31 0 10 -9 9 -61 -4 -4 -1 -7 3 -7 8 0
6 4 9 9 8 4 -2 23 11 41 27 18 17 39 30 48 30 8 0 24 17 35 37 18 33 26 38 75
48 46 8 55 14 60 35 4 18 8 21 14 11 12 -18 -25 -65 -55 -69 -13 -2 -31 -13
-41 -25 -19 -22 -19 -22 -23 -54 -4 -39 -14 -52 -42 -55 -18 -2 -29 -10 -31
-22 -3 -15 0 -17 14 -11 11 4 30 10 44 13 14 2 34 15 45 28 17 21 25 23 50 16
46 -14 98 -5 117 21 14 17 18 19 18 6 0 -9 -8 -27 -18 -39 -18 -22 -34 -27
-89 -29 -12 -1 -37 -17 -55 -37 -22 -24 -38 -34 -53 -31 -11 3 -29 2 -40 -2
-19 -8 -19 -8 2 -19 27 -15 90 -16 98 -2 11 17 51 11 71 -11 12 -13 27 -19 41
-16 28 5 30 -8 5 -22 -13 -7 -31 -6 -55 1 -32 10 -39 8 -67 -16 -35 -29 -41
-31 -57 -15 -14 14 -75 8 -81 -8 -2 -7 4 -13 13 -13 9 0 30 -8 45 -17 27 -15
30 -15 54 0 25 17 27 16 65 -18 43 -39 56 -42 89 -19 31 22 30 -5 -2 -35 l-24
-22 -33 20 c-40 24 -67 27 -75 7 -9 -23 -33 -27 -72 -11 -20 9 -42 13 -49 11
-20 -8 -15 -40 10 -65 31 -28 63 -34 91 -16 29 20 62 2 91 -50 17 -31 28 -40
49 -40 29 1 35 -10 10 -19 -32 -12 -56 -5 -80 23 -31 37 -74 48 -107 26 -19
-12 -30 -13 -51 -5 -36 13 -36 13 -36 -9 0 -14 11 -23 38 -32 20 -7 46 -18 57
-24 11 -7 37 -16 57 -19 38 -7 58 -29 58 -64 0 -10 11 -25 25 -32 13 -7 22
-17 19 -22 -11 -18 -32 -6 -63 37 -31 44 -34 45 -86 45 -38 0 -54 4 -59 15 -6
17 -66 21 -66 4 0 -6 16 -25 35 -43 23 -22 35 -43 35 -60 0 -28 35 -71 50 -61
14 9 59 -16 66 -37 3 -10 9 -16 14 -13 5 3 11 1 14 -4 8 -12 -20 -22 -39 -15
-8 4 -15 12 -15 20 0 19 -30 32 -62 27 -24 -3 -30 2 -49 39 -32 65 -57 88 -96
88 -38 0 -43 -18 -13 -45 16 -14 20 -31 20 -75 0 -57 11 -79 42 -84 29 -4 45
-22 44 -51 -1 -17 4 -30 12 -31 6 -1 17 -2 22 -3 21 -2 9 -21 -13 -21 -29 0
-47 18 -47 45 0 29 -19 45 -52 45 -30 0 -48 24 -48 62 1 36 -8 80 -18 90 -5 5
-21 11 -35 14 -29 5 -37 -12 -16 -33 9 -9 6 -22 -10 -53 -28 -54 -27 -68 9
-100 29 -26 30 -28 16 -61 -7 -19 -11 -40 -8 -48 3 -8 -1 -12 -9 -9 -9 3 -13
17 -11 38 3 36 -11 58 -45 71 -27 10 -30 44 -8 73 17 23 19 64 5 101 -9 23 -7
28 10 32 13 3 19 11 16 19 -6 16 10 19 19 4 3 -5 14 -10 23 -10 13 0 12 5 -8
20 -30 24 -34 24 -54 4 -9 -8 -20 -13 -26 -9 -6 4 -7 -1 -3 -12 5 -15 3 -16
-8 -5 -22 20 -28 14 -22 -23 4 -25 -1 -49 -21 -88 -30 -62 -32 -81 -11 -121
19 -36 19 -46 0 -46 -10 0 -15 -10 -15 -30 0 -33 -14 -39 -28 -13 -6 11 -5 27
4 49 14 32 10 64 -7 64 -4 0 -13 9 -19 20 -9 17 -7 28 9 54 25 40 26 61 6 100
-8 16 -12 39 -9 52 6 23 10 24 53 18 55 -7 101 8 108 36 7 25 3 25 59 -5 32
-17 51 -22 58 -15 11 11 -18 39 -41 40 -6 0 -13 15 -15 33 l-3 32 -89 0 c-61
1 -91 5 -94 13 -2 7 -10 12 -18 12 -9 0 -12 -4 -9 -10 3 -5 1 -10 -5 -10 -16
0 -9 68 8 75 21 8 32 -3 32 -33 0 -28 14 -21 24 13 3 11 4 8 2 -8 -3 -21 0
-27 13 -25 10 2 15 12 13 26 -3 19 6 27 51 47 57 25 74 48 62 85 -8 26 -37 41
-56 29 -12 -8 -10 -13 9 -29 l23 -19 -27 -7 c-15 -4 -39 -13 -53 -20 -34 -18
-53 -17 -77 1 -19 15 -19 15 4 35 13 11 21 24 17 30 -3 5 0 10 7 11 7 1 2 5
-12 9 -24 8 -24 8 -2 9 23 1 32 21 10 21 -9 0 -8 4 2 10 13 9 13 10 0 10 -12
1 -11 4 3 15 18 13 17 14 -5 18 l-23 4 24 8 c23 8 24 9 5 16 -16 7 -17 8 -1 8
9 1 17 6 17 12 0 6 -8 8 -19 4 -15 -5 -18 -1 -13 20 2 14 11 25 21 26 9 0 11
3 4 5 -7 3 -9 12 -6 20 3 8 -1 14 -8 15 -8 0 -5 5 6 10 15 7 11 8 -19 5 -22
-3 -50 1 -65 8 -14 8 -46 16 -70 20 -54 7 -58 11 -37 32 24 23 13 29 -17 9
-21 -13 -24 -22 -21 -55 3 -31 1 -38 -11 -34 -8 4 -15 10 -15 15 0 12 -99 103
-121 111 -11 4 -27 25 -37 45 -9 21 -24 38 -32 38 -8 0 -20 16 -27 37 -14 41
-35 66 -76 87 -35 19 -29 23 18 13 30 -6 46 -18 69 -51 17 -24 41 -48 53 -55
20 -10 90 -94 119 -142 11 -18 12 -17 19 7 4 18 0 37 -14 60 -12 19 -21 41
-21 50 0 9 -9 24 -20 34 -21 19 -35 56 -44 120 l-6 40 20 -24 c11 -13 20 -34
20 -47 0 -16 11 -31 35 -46 21 -14 35 -31 35 -44 0 -11 10 -29 21 -40 12 -10
28 -34 36 -51 7 -18 18 -33 23 -33 15 0 12 23 -6 49 -9 12 -16 40 -16 62 1 22
-6 55 -14 74 -11 28 -12 44 -3 79 8 32 8 49 0 65 -7 12 -8 21 -3 21 19 0 34
-49 29 -98 -3 -38 0 -55 12 -69 9 -10 30 -46 46 -80 17 -35 33 -63 37 -63 4 0
6 15 6 33 0 17 0 46 2 62 1 17 -1 46 -4 66 -5 31 0 43 29 80 19 24 37 56 41
72 8 37 23 25 20 -17z m-674 24 c2 -5 18 -10 36 -12 41 -3 54 -18 15 -17 -39
0 -114 16 -85 18 13 0 20 6 17 11 -3 6 -2 10 4 10 5 0 11 -4 13 -10z m182 -1
c-3 -6 0 -15 7 -20 9 -6 -7 -9 -44 -7 -41 1 -54 4 -43 10 9 5 25 6 36 3 11 -4
20 -2 20 4 0 5 -28 12 -62 14 -62 3 -61 3 15 5 55 1 76 -1 71 -9z m96 1 c-8
-5 -18 -6 -24 -3 -5 4 -7 -1 -3 -10 5 -13 1 -17 -16 -17 -16 0 -23 6 -23 19 0
15 8 19 40 19 27 1 36 -2 26 -8z m70 1 c0 -5 -9 -7 -20 -4 -11 3 -20 7 -20 9
0 2 9 4 20 4 11 0 20 -4 20 -9z m45 -1 c-3 -5 -10 -10 -16 -10 -5 0 -9 5 -9
10 0 6 7 10 16 10 8 0 12 -4 9 -10z m128 3 c-7 -2 -19 -2 -25 0 -7 3 -2 5 12
5 14 0 19 -2 13 -5z m207 3 c0 -11 -19 -15 -25 -6 -3 5 1 10 9 10 9 0 16 -2
16 -4z m95 -6 c3 -5 1 -10 -4 -10 -6 0 -11 5 -11 10 0 6 2 10 4 10 3 0 8 -4
11 -10z m530 -10 c-3 -5 -10 -10 -16 -10 -5 0 -9 5 -9 10 0 6 7 10 16 10 8 0
12 -4 9 -10z m-775 -11 c-12 -8 -9 -10 12 -6 15 2 25 0 22 -4 -8 -13 -54 -11
-54 2 0 8 -4 8 -14 0 -10 -8 -16 -8 -25 2 -9 11 -3 14 32 15 32 1 38 -1 27 -9z
m728 -3 c-7 -8 -15 -12 -17 -11 -5 6 10 25 20 25 5 0 4 -6 -3 -14z m-44 -4 c3
-5 -1 -9 -9 -9 -8 0 -15 4 -15 9 0 4 4 8 9 8 6 0 12 -4 15 -8z m-1359 -23
c-43 -7 -43 -7 85 -15 112 -8 99 -15 -20 -12 -89 3 -105 6 -108 20 -2 12 5 18
30 20 49 5 60 -6 13 -13z m815 5 c0 -2 -7 -4 -15 -4 -8 0 -15 4 -15 10 0 5 7
7 15 4 8 -4 15 -8 15 -10z m40 6 c0 -5 -7 -10 -16 -10 -8 0 -12 5 -9 10 3 6
10 10 16 10 5 0 9 -4 9 -10z m128 3 c-10 -2 -26 -2 -35 0 -10 3 -2 5 17 5 19
0 27 -2 18 -5z m-835 -13 c-14 -6 -32 -6 -45 0 -19 7 -15 9 22 9 37 0 41 -2
23 -9z m147 0 c0 -13 -90 -13 -110 0 -11 7 3 10 48 10 35 0 62 -4 62 -10z
m169 6 c-9 -8 -116 -12 -139 -5 -16 4 6 7 59 8 46 1 82 -1 80 -3z m44 -3 c-7
-2 -19 -2 -25 0 -7 3 -2 5 12 5 14 0 19 -2 13 -5z m612 -3 c3 -5 2 -10 -4 -10
-5 0 -13 5 -16 10 -3 6 -2 10 4 10 5 0 13 -4 16 -10z m-435 -7 c0 -5 -11 -8
-25 -8 -14 0 -25 3 -25 8 0 4 11 7 25 7 14 0 25 -3 25 -7z m527 1 c-3 -3 -12
-4 -19 -1 -8 3 -5 6 6 6 11 1 17 -2 13 -5z m159 -1 c-10 -11 -36 -12 -36 -2 0
5 10 9 22 9 12 0 18 -3 14 -7z m41 1 c-3 -3 -12 -4 -19 -1 -8 3 -5 6 6 6 11 1
17 -2 13 -5z m46 -1 c-7 -2 -19 -2 -25 0 -7 3 -2 5 12 5 14 0 19 -2 13 -5z
m-1133 -24 c0 -5 -34 -9 -75 -9 -41 0 -75 4 -75 10 0 5 27 8 61 7 33 -2 63 1
65 5 6 10 24 0 24 -13z m135 11 c3 -5 1 -10 -4 -10 -6 0 -11 5 -11 10 0 6 2
10 4 10 3 0 8 -4 11 -10z m75 0 c0 -5 -7 -10 -15 -10 -8 0 -15 5 -15 10 0 6 7
10 15 10 8 0 15 -4 15 -10z m287 4 c-3 -3 -12 -4 -19 -1 -8 3 -5 6 6 6 11 1
17 -2 13 -5z m-160 -20 c-3 -3 -12 -4 -19 -1 -8 3 -5 6 6 6 11 1 17 -2 13 -5z
m603 -4 c0 -5 -2 -10 -4 -10 -3 0 -8 5 -11 10 -3 6 -1 10 4 10 6 0 11 -4 11
-10z m170 -10 c0 -5 -21 -9 -46 -8 -31 0 -42 3 -32 9 8 5 25 7 37 4 11 -2 21
1 21 6 0 6 5 7 10 4 6 -3 10 -10 10 -15z m-1465 1 c3 -5 -4 -12 -15 -16 -31
-10 -26 -45 8 -46 24 0 25 -1 7 -9 -17 -7 -17 -9 -2 -9 9 -1 17 -5 17 -10 0
-5 -9 -7 -20 -4 -11 3 -20 9 -20 14 0 5 -6 9 -14 9 -20 0 -27 37 -9 44 8 4 13
13 9 21 -6 17 29 22 39 6z m80 -9 c16 -13 21 -23 14 -33 -6 -10 -9 -10 -9 -1
0 6 -12 12 -27 13 -25 0 -26 1 -8 9 19 8 19 9 -2 9 -29 1 -41 21 -13 21 12 0
32 -8 45 -18z m95 8 c13 -8 13 -10 -2 -10 -9 0 -20 5 -23 10 -8 13 5 13 25 0z
m380 2 c0 -4 -16 -6 -35 -4 -19 2 -35 6 -35 8 0 2 16 4 35 4 19 0 35 -4 35 -8z
m597 2 c-3 -3 -12 -4 -19 -1 -8 3 -5 6 6 6 11 1 17 -2 13 -5z m60 0 c-3 -3
-12 -4 -19 -1 -8 3 -5 6 6 6 11 1 17 -2 13 -5z m-837 -13 c0 -5 -14 -9 -31 -9
-20 1 -26 4 -17 9 18 12 48 11 48 0z m30 -1 c0 -5 -2 -10 -4 -10 -3 0 -8 5
-11 10 -3 6 -1 10 4 10 6 0 11 -4 11 -10z m1117 4 c-3 -3 -12 -4 -19 -1 -8 3
-5 6 6 6 11 1 17 -2 13 -5z m-1513 -24 c-10 -4 -21 -6 -24 -3 -8 7 24 22 34
16 5 -4 1 -10 -10 -13z m526 10 c12 -8 9 -10 -13 -10 -16 0 -26 4 -22 10 8 12
16 12 35 0z m650 1 c0 -4 -11 -8 -25 -9 -14 -1 -25 2 -25 6 0 4 11 8 25 8 14
1 25 -1 25 -5z m-972 -10 c9 -5 -7 -9 -42 -10 -31 0 -56 3 -56 9 0 12 80 13
98 1z m1095 -3 c-28 -6 -49 -6 -60 1 -14 8 -4 10 42 10 l60 -1 -42 -10z m107
2 c0 -5 -7 -10 -15 -10 -8 0 -15 5 -15 10 0 6 7 10 15 10 8 0 15 -4 15 -10z
m170 1 c0 -5 -8 -12 -17 -14 -14 -4 -12 -5 5 -6 42 -2 22 -17 -23 -16 -50 1
-75 15 -29 16 16 0 23 3 17 6 -24 9 -13 23 17 23 17 0 30 -4 30 -9z m-1678
-15 c8 -7 25 -37 38 -65 14 -28 28 -51 32 -51 12 0 10 14 -4 28 -19 19 7 31
48 22 19 -4 34 -5 34 -1 0 3 5 -1 10 -9 8 -12 2 -16 -27 -20 -34 -5 -36 -6
-20 -22 23 -23 21 -29 -8 -24 -14 3 -25 0 -25 -5 0 -5 23 -9 52 -9 63 0 60 -8
-5 -11 -32 -2 -47 -7 -47 -17 0 -9 7 -11 22 -6 20 6 21 5 6 -9 -17 -17 -16
-41 2 -151 9 -54 6 -275 -5 -346 -19 -130 -54 -180 -124 -180 -22 0 -43 5 -46
10 -4 6 9 10 33 10 48 0 84 35 102 102 12 46 18 272 11 403 -4 69 -30 179 -57
243 -8 18 -14 38 -14 45 0 7 -9 23 -20 37 -11 14 -20 28 -20 33 0 12 17 8 32
-7z m491 7 c-7 -2 -21 -2 -30 0 -10 3 -4 5 12 5 17 0 24 -2 18 -5z m275 -12
c3 -8 -1 -12 -9 -9 -7 2 -15 10 -17 17 -3 8 1 12 9 9 7 -2 15 -10 17 -17z
m839 13 c-3 -3 -12 -4 -19 -1 -8 3 -5 6 6 6 11 1 17 -2 13 -5z m-964 -11 c-7
-2 -19 -2 -25 0 -7 3 -2 5 12 5 14 0 19 -2 13 -5z m584 1 c-3 -3 -12 -4 -19
-1 -8 3 -5 6 6 6 11 1 17 -2 13 -5z m-919 -22 c3 -9 -4 -11 -25 -6 -50 12 -61
24 -19 22 22 -2 41 -9 44 -16z m1139 12 c-3 -3 -12 -4 -19 -1 -8 3 -5 6 6 6
11 1 17 -2 13 -5z m130 0 c-3 -3 -12 -4 -19 -1 -8 3 -5 6 6 6 11 1 17 -2 13
-5z m-1424 -11 c-7 -2 -19 -2 -25 0 -7 3 -2 5 12 5 14 0 19 -2 13 -5z m357 -2
c0 -5 3 -16 6 -25 3 -9 1 -16 -6 -16 -6 0 -8 5 -5 10 3 6 -1 10 -9 10 -10 0
-13 6 -10 15 7 16 24 21 24 6z m140 5 c0 -3 -4 -8 -10 -11 -5 -3 -10 -1 -10 4
0 6 5 11 10 11 6 0 10 -2 10 -4z m250 -6 c0 -5 -4 -10 -10 -10 -5 0 -10 5 -10
10 0 6 5 10 10 10 6 0 10 -4 10 -10z m303 3 c-7 -2 -21 -2 -30 0 -10 3 -4 5
12 5 17 0 24 -2 18 -5z m-835 -10 c-10 -2 -26 -2 -35 0 -10 3 -2 5 17 5 19 0
27 -2 18 -5z m1050 0 c-10 -2 -28 -2 -40 0 -13 2 -5 4 17 4 22 1 32 -1 23 -4z
m69 1 c-3 -3 -12 -4 -19 -1 -8 3 -5 6 6 6 11 1 17 -2 13 -5z m46 -1 c-7 -2
-19 -2 -25 0 -7 3 -2 5 12 5 14 0 19 -2 13 -5z m132 -8 c6 -2 -16 -4 -47 -4
-31 -1 -59 3 -62 7 -5 8 85 5 109 -3z m85 7 c0 -5 -8 -17 -17 -28 -59 -66 -93
-140 -124 -265 -39 -163 -33 -397 12 -479 26 -46 82 -82 120 -78 17 1 33 -3
37 -10 10 -14 -4 -158 -17 -187 -5 -11 -14 -41 -20 -67 -11 -45 -55 -126 -96
-177 -63 -78 -190 -173 -295 -222 -68 -32 -210 -79 -254 -84 -22 -3 -56 -10
-76 -15 -40 -11 -294 -15 -309 -5 -6 3 -33 8 -61 11 -61 6 -213 55 -292 95
-73 37 -217 145 -284 213 -108 110 -172 244 -181 376 -3 54 -1 70 6 59 6 -9
11 -32 12 -50 3 -63 55 -200 99 -263 44 -62 118 -137 190 -193 76 -59 226
-138 290 -152 25 -5 61 -17 81 -25 49 -21 145 -31 279 -30 210 1 366 38 548
132 18 9 45 29 59 45 15 15 31 27 35 27 5 0 18 9 30 20 12 11 27 20 32 20 16
1 113 129 137 181 28 60 37 80 44 107 6 21 4 22 -57 22 -107 0 -234 13 -213
21 11 4 29 5 40 3 11 -2 70 -6 131 -9 127 -5 115 -14 130 89 l7 48 -69 -4
c-38 -3 -57 -3 -42 -1 l27 4 -49 47 c-52 50 -66 86 -80 197 -8 66 -5 223 4
232 3 4 6 18 6 32 0 45 59 221 91 275 45 74 89 118 89 88z m-590 -12 c0 -5 -7
-7 -15 -4 -8 4 -15 8 -15 10 0 2 7 4 15 4 8 0 15 -4 15 -10z m-947 -7 c-13 -2
-33 -2 -45 0 -13 2 -3 4 22 4 25 0 35 -2 23 -4z m171 1 c19 -7 22 -44 4 -43
-7 0 -22 4 -33 9 -17 7 -16 9 10 10 l30 1 -30 14 c-30 13 -13 21 19 9z m1016
-10 c0 -2 -19 -4 -42 -3 -35 1 -38 2 -18 8 23 7 60 4 60 -5z m178 -1 c-21 -2
-55 -2 -75 0 -21 2 -4 4 37 4 41 0 58 -2 38 -4z m82 -3 c0 -5 -4 -10 -10 -10
-5 0 -10 5 -10 10 0 6 5 10 10 10 6 0 10 -4 10 -10z m-1419 -10 c22 0 38 -4
35 -9 -7 -11 -88 -2 -101 12 -7 7 -4 8 8 3 10 -3 37 -6 58 -6z m549 6 c0 -3
-4 -8 -10 -11 -5 -3 -10 -1 -10 4 0 6 5 11 10 11 6 0 10 -2 10 -4z m-270 -16
c0 -5 -2 -10 -4 -10 -3 0 -8 5 -11 10 -3 6 -1 10 4 10 6 0 11 -4 11 -10z m865
0 c3 -5 1 -10 -4 -10 -6 0 -11 5 -11 10 0 6 2 10 4 10 3 0 8 -4 11 -10z m105
0 c0 -5 -4 -10 -10 -10 -5 0 -10 5 -10 10 0 6 5 10 10 10 6 0 10 -4 10 -10z
m43 -7 c-7 -2 -19 -2 -25 0 -7 3 -2 5 12 5 14 0 19 -2 13 -5z m100 0 c-13 -2
-35 -2 -50 0 -16 2 -5 4 22 4 28 0 40 -2 28 -4z m-1679 -30 c-9 -39 -17 -45
-47 -38 -25 7 -25 7 -9 36 11 18 25 29 40 29 19 0 22 -4 16 -27z m56 -34 c0
-35 -10 -42 -31 -23 -15 14 -16 18 -2 46 17 34 33 23 33 -23z m400 41 c0 -5
-2 -10 -4 -10 -3 0 -8 5 -11 10 -3 6 -1 10 4 10 6 0 11 -4 11 -10z m160 6 c0
-3 -4 -8 -10 -11 -5 -3 -10 -1 -10 4 0 6 5 11 10 11 6 0 10 -2 10 -4z m565 -6
c3 -5 -1 -10 -9 -10 -9 0 -16 5 -16 10 0 6 4 10 9 10 6 0 13 -4 16 -10z m161
-5 c14 -13 12 -15 -15 -15 -30 0 -46 11 -34 24 11 11 34 7 49 -9z m221 9 c-3
-3 -12 -4 -19 -1 -8 3 -5 6 6 6 11 1 17 -2 13 -5z m50 0 c-3 -3 -12 -4 -19 -1
-8 3 -5 6 6 6 11 1 17 -2 13 -5z m43 -4 c0 -5 -7 -7 -15 -4 -8 4 -15 8 -15 10
0 2 7 4 15 4 8 0 15 -4 15 -10z m-1280 -31 c102 -47 242 -169 311 -270 87
-128 135 -314 126 -487 -6 -120 -42 -275 -79 -340 -27 -48 -118 -152 -132
-152 -5 0 4 15 21 33 76 81 134 198 142 287 7 72 6 170 -1 195 -5 17 -11 42
-13 57 -5 36 -42 184 -70 283 -39 136 -59 170 -149 260 -99 99 -266 181 -266
131 0 -21 16 -28 68 -32 45 -3 121 -44 130 -71 6 -19 -12 -16 -38 7 -12 11
-30 21 -39 24 -9 2 -38 9 -64 16 -27 7 -56 23 -66 36 -11 13 -23 24 -29 24 -5
0 -16 7 -23 16 -12 15 -8 16 51 12 41 -2 86 -13 120 -29z m1287 7 c3 -3 -24
-6 -61 -6 -37 0 -65 4 -62 8 6 10 113 8 123 -2z m-360 -12 c-3 -3 -12 -4 -19
-1 -8 3 -5 6 6 6 11 1 17 -2 13 -5z m-830 -16 c44 -19 152 -108 218 -180 109
-117 162 -264 172 -475 6 -122 2 -152 -33 -261 -17 -53 -44 -106 -50 -99 -3 2
6 33 19 69 21 55 35 126 42 218 2 30 -20 195 -36 265 -17 75 -50 154 -83 205
-51 76 -196 214 -271 258 -27 15 -13 15 22 0z m1139 5 c-9 -10 -35 -13 -40 -4
-3 4 7 8 21 9 15 1 23 -1 19 -5z m34 -3 c0 -5 -2 -10 -4 -10 -3 0 -8 5 -11 10
-3 6 -1 10 4 10 6 0 11 -4 11 -10z m-359 -43 c-6 -6 -14 -7 -18 -2 -5 4 -3 10
4 12 7 2 10 12 7 21 -4 14 -3 13 6 -1 9 -14 9 -22 1 -30z m-1051 23 c0 -5 -12
-10 -27 -10 -22 0 -25 2 -13 10 20 13 40 13 40 0z m1578 -52 c16 -58 -9 -69
-32 -14 -17 42 -11 85 9 64 8 -7 18 -30 23 -50z m-1610 25 c-10 -2 -26 -2 -35
0 -10 3 -2 5 17 5 19 0 27 -2 18 -5z m87 -13 c3 -5 1 -10 -4 -10 -6 0 -11 5
-11 10 0 6 2 10 4 10 3 0 8 -4 11 -10z m-5 -28 c0 -5 -28 -9 -62 -9 -51 0 -57
1 -28 7 50 11 90 11 90 2z m1493 -44 c-14 -26 -60 11 -49 39 6 15 9 14 30 -8
13 -13 21 -27 19 -31z m-169 26 c3 -8 2 -12 -4 -9 -6 3 -10 10 -10 16 0 14 7
11 14 -7z m-1224 -12 c29 -6 36 -12 38 -35 2 -19 -1 -27 -12 -27 -8 0 -17 4
-21 9 -3 6 -27 13 -53 16 -112 15 -122 17 -122 31 0 11 8 13 34 9 21 -4 36 -3
41 5 4 7 18 9 34 5 14 -3 42 -9 61 -13z m129 -40 c10 -18 9 -22 -3 -22 -8 0
-18 -4 -21 -10 -4 -6 11 -7 41 -3 35 4 45 3 40 -5 -4 -7 -17 -10 -31 -6 -12 3
-26 1 -29 -5 -5 -7 8 -11 38 -11 25 0 48 -5 52 -12 5 -7 3 -8 -6 -3 -9 5 -10
2 -5 -14 4 -13 2 -21 -5 -21 -6 0 -9 -4 -5 -10 3 -5 12 -7 19 -4 16 6 31 -12
17 -20 -5 -4 -21 -2 -34 3 -14 6 -27 6 -29 1 -5 -14 -41 -16 -45 -2 -3 7 4 12
16 12 11 0 23 5 26 11 5 7 -3 9 -21 7 -26 -3 -29 -7 -32 -43 -2 -34 2 -45 29
-70 19 -18 30 -23 26 -13 -6 18 29 33 39 17 3 -6 11 -5 20 2 7 6 21 8 31 5 15
-6 13 -10 -12 -31 -17 -13 -24 -24 -17 -25 7 0 10 -5 6 -11 -4 -8 1 -9 17 -4
l24 6 -25 -20 c-17 -14 -20 -21 -10 -21 12 -1 12 -3 -2 -14 -10 -7 -18 -16
-18 -19 0 -4 8 -3 18 0 15 6 16 5 2 -12 -14 -17 -13 -18 15 -11 l29 7 -19 -22
c-17 -19 -18 -22 -3 -16 16 5 16 4 5 -15 -9 -16 -9 -22 1 -25 6 -3 12 -11 12
-19 0 -8 10 -14 22 -14 20 0 20 -1 5 -18 -20 -22 -8 -45 19 -37 19 6 19 6 0
-9 -11 -9 -23 -16 -28 -16 -4 0 -8 -11 -8 -25 0 -14 -5 -25 -11 -25 -5 0 -7
-5 -3 -11 3 -6 0 -15 -7 -20 -10 -6 -10 -9 -2 -9 9 0 10 -7 3 -26 -13 -34 -13
-37 4 -31 11 4 13 1 9 -10 -4 -11 -2 -14 5 -9 7 4 12 2 12 -3 0 -23 -55 -10
-77 18 -22 28 -22 30 -8 82 23 83 23 83 7 102 -18 20 -39 22 -44 5 -3 -7 -25
-13 -54 -14 -64 -3 -57 -1 -89 -26 -18 -14 -45 -23 -71 -24 -39 -2 -42 -1 -32
16 6 10 17 16 24 13 13 -5 64 39 64 54 0 10 -197 10 -206 0 -12 -11 -21 -8
-28 8 -5 13 15 15 155 14 103 0 165 3 172 10 8 8 18 4 34 -11 20 -19 26 -20
33 -8 7 12 12 12 28 -3 21 -19 62 -23 62 -5 0 6 -7 19 -16 29 -13 14 -21 16
-42 8 -14 -5 -32 -7 -39 -5 -17 7 -14 63 5 94 19 29 1 78 -24 68 -9 -3 -20 -6
-25 -6 -5 0 -9 -7 -9 -16 0 -11 6 -14 20 -9 11 4 20 2 20 -4 0 -6 -5 -11 -11
-11 -11 0 -48 -39 -49 -52 0 -4 7 -5 15 -2 23 9 18 -24 -5 -36 -15 -8 -30 -8
-56 0 -29 10 -41 9 -71 -5 -29 -14 -40 -15 -56 -6 -14 9 -22 9 -33 0 -18 -15
-29 -6 -20 17 5 13 14 15 45 10 33 -5 39 -3 51 19 10 19 21 25 46 25 18 0 36
-4 39 -10 3 -5 14 -10 23 -10 14 0 14 2 3 9 -16 10 -17 106 -1 162 9 29 7 37
-13 57 -22 21 -23 28 -15 85 10 82 12 88 26 115 14 25 27 18 51 -26z m1210 17
c15 -34 9 -48 -14 -29 -15 13 -21 60 -7 60 4 0 13 -14 21 -31z m-1534 11 c3
-5 1 -10 -4 -10 -6 0 -11 5 -11 10 0 6 2 10 4 10 3 0 8 -4 11 -10z m1415 -15
c0 -9 -9 -15 -22 -14 -17 1 -19 2 -5 6 9 2 17 9 17 14 0 5 2 9 5 9 3 0 5 -7 5
-15z m-1365 -25 c8 -13 61 -13 85 0 11 6 21 6 24 1 10 -16 -47 -26 -109 -20
-33 3 -49 6 -35 7 20 2 22 4 10 12 -13 8 -13 10 2 10 9 0 20 -4 23 -10z m594
-4 c10 -12 9 -13 -7 -9 -11 2 -31 -1 -43 -8 -24 -12 -24 -12 -5 10 22 25 39
27 55 7z m771 -6 c0 -5 -2 -10 -4 -10 -3 0 -8 5 -11 10 -3 6 -1 10 4 10 6 0
11 -4 11 -10z m82 -22 c-9 -9 -12 -7 -12 12 0 19 3 21 12 12 9 -9 9 -15 0 -24z
m-791 10 c5 -44 3 -98 -3 -98 -3 0 -4 -18 -1 -40 4 -27 2 -40 -6 -40 -6 0 -14
6 -17 14 -3 8 -14 12 -27 9 -22 -4 -22 -4 -3 11 19 16 19 16 -5 16 -22 1 -21
2 9 15 17 8 32 19 32 25 0 13 -17 13 -25 0 -10 -16 -45 -12 -45 6 0 8 4 12 10
9 5 -3 21 6 35 21 14 15 25 22 25 15 0 -6 4 -11 9 -11 6 0 6 12 1 30 -5 18 -5
30 1 30 5 0 10 -6 10 -12z m689 -9 c0 -5 -21 -9 -46 -9 -25 0 -43 4 -40 8 3 5
19 7 35 6 17 -1 31 2 31 8 0 5 5 6 10 3 6 -3 10 -10 10 -16z m-772 -5 c-2 -10
3 -19 10 -21 6 -3 12 3 12 12 0 9 5 13 10 10 13 -8 -6 -35 -24 -35 -18 0 -35
21 -29 36 7 20 24 17 21 -2z m667 6 c3 -5 1 -10 -4 -10 -6 0 -11 5 -11 10 0 6
2 10 4 10 3 0 8 -4 11 -10z m-1262 -14 c3 -8 -2 -16 -13 -19 -12 -3 -20 2 -23
14 -6 23 28 27 36 5z m179 -2 c4 -3 8 -17 8 -32 0 -20 -3 -23 -12 -14 -17 17
-56 15 -75 -3 -8 -8 -19 -13 -24 -10 -31 20 25 77 68 69 15 -3 30 -7 35 -10z
m-122 -21 c0 -8 -5 -13 -12 -11 -18 6 -21 25 -3 25 8 0 15 -7 15 -14z m1313
10 c-7 -2 -21 -2 -30 0 -10 3 -4 5 12 5 17 0 24 -2 18 -5z m-428 -43 c-3 -5
-11 -10 -16 -10 -6 0 -7 5 -4 10 3 6 11 10 16 10 6 0 7 -4 4 -10z m-968 -22
c-3 -8 -6 -5 -6 6 -1 11 2 17 5 13 3 -3 4 -12 1 -19z m1003 3 c0 -19 -73 -30
-85 -12 -3 6 12 12 32 14 21 2 41 4 46 5 4 1 7 -2 7 -7z m-776 -36 c6 -11 15
-23 21 -27 18 -13 -5 -21 -29 -10 -16 7 -36 8 -56 2 -24 -7 -38 -5 -55 6 -16
10 -35 13 -64 8 -28 -4 -41 -3 -41 5 0 6 15 12 33 13 17 1 47 2 65 3 18 1 38
7 45 14 18 18 68 9 81 -14z m-186 8 c-10 -2 -26 -2 -35 0 -10 3 -2 5 17 5 19
0 27 -2 18 -5z m376 -14 c15 -14 -1 -22 -20 -11 -14 8 -21 6 -30 -5 -6 -9 -16
-13 -23 -9 -9 6 -8 13 6 26 18 18 47 18 67 -1z m906 3 c0 -12 -58 -14 -65 -2
-4 6 8 10 29 10 20 0 36 -4 36 -8z m16 -29 c-15 -4 -16 -7 -5 -14 10 -6 6 -9
-13 -9 -20 0 -26 4 -22 15 4 9 17 15 33 14 19 -1 21 -3 7 -6z m-1296 -23 c-20
-13 -40 -13 -40 0 0 6 12 10 28 10 21 0 24 -2 12 -10z m40 6 c0 -3 -4 -8 -10
-11 -5 -3 -10 -1 -10 4 0 6 5 11 10 11 6 0 10 -2 10 -4z m600 -16 c8 -5 11
-10 5 -10 -5 0 -17 5 -25 10 -8 5 -10 10 -5 10 6 0 17 -5 25 -10z m-632 -17
c-10 -2 -26 -2 -35 0 -10 3 -2 5 17 5 19 0 27 -2 18 -5z m107 -3 c-3 -5 -15
-10 -25 -10 -10 0 -20 -3 -23 -7 -2 -5 -2 -3 -1 4 2 6 -5 14 -14 16 -9 3 2 5
26 6 27 1 41 -3 37 -9z m305 -10 c-20 -13 -33 -13 -25 0 3 6 14 10 23 10 15 0
15 -2 2 -10z m236 -6 c-3 -9 -6 -22 -6 -30 0 -8 -4 -14 -10 -14 -11 0 -14 43
-3 53 12 13 25 7 19 -9z m-462 -10 c8 -20 7 -26 -3 -43 -7 -11 -13 -10 -33 3
-22 15 -27 14 -62 -5 l-39 -21 -21 24 c-12 14 -30 28 -41 33 -19 8 -19 9 3 13
13 2 32 -4 41 -12 14 -13 24 -14 44 -7 14 5 28 15 32 20 10 17 72 13 79 -5z
m-204 -30 c0 -2 -7 -4 -15 -4 -8 0 -15 4 -15 10 0 5 7 7 15 4 8 -4 15 -8 15
-10z m-7 -46 c-3 -17 -10 -25 -19 -21 -19 7 -18 33 1 33 8 0 15 5 15 12 0 6 2
9 4 7 2 -2 2 -16 -1 -31z m1354 26 c-3 -3 -12 -4 -19 -1 -8 3 -5 6 6 6 11 1
17 -2 13 -5z m-1257 -24 c0 -5 -5 -10 -11 -10 -5 0 -7 5 -4 10 3 6 8 10 11 10
2 0 4 -4 4 -10z m1210 1 c0 -4 -11 -6 -25 -3 -14 2 -25 6 -25 8 0 2 11 4 25 4
14 0 25 -4 25 -9z m-620 -11 c0 -5 -2 -10 -4 -10 -3 0 -8 5 -11 10 -3 6 -1 10
4 10 6 0 11 -4 11 -10z m663 3 c-7 -2 -19 -2 -25 0 -7 3 -2 5 12 5 14 0 19 -2
13 -5z m-1328 -13 c3 -5 1 -10 -4 -10 -6 0 -11 5 -11 10 0 6 2 10 4 10 3 0 8
-4 11 -10z m63 -7 c-10 -2 -26 -2 -35 0 -10 3 -2 5 17 5 19 0 27 -2 18 -5z
m-100 -34 c-3 -8 -7 -3 -11 10 -4 17 -3 21 5 13 5 -5 8 -16 6 -23z m1360 24
c-10 -2 -26 -2 -35 0 -10 3 -2 5 17 5 19 0 27 -2 18 -5z m-1350 -50 c-10 -2
-26 -2 -35 0 -10 3 -2 5 17 5 19 0 27 -2 18 -5z m2 -23 c0 -5 -12 -10 -27 -9
l-28 1 25 8 c14 4 26 8 28 9 1 1 2 -3 2 -9z m210 0 c0 -5 -4 -10 -10 -10 -5 0
-10 5 -10 10 0 6 5 10 10 10 6 0 10 -4 10 -10z m660 -25 c0 -10 -22 -11 -147
-6 -18 0 -33 5 -33 9 0 5 40 8 90 8 55 -1 90 -5 90 -11z m515 5 c3 -5 -3 -10
-14 -10 -12 0 -21 5 -21 10 0 6 6 10 14 10 8 0 18 -4 21 -10z m-875 -30 c0 -5
-4 -10 -10 -10 -5 0 -10 5 -10 10 0 6 5 10 10 10 6 0 10 -4 10 -10z m-570 -21
c0 -5 -7 -9 -15 -9 -8 0 -15 7 -15 15 0 9 6 12 15 9 8 -4 15 -10 15 -15z m103
14 c-7 -2 -19 -2 -25 0 -7 3 -2 5 12 5 14 0 19 -2 13 -5z m115 2 c-11 -11 -51
-14 -67 -5 -12 7 -4 9 28 10 24 0 42 -2 39 -5z m-431 -27 c-3 -8 -6 -5 -6 6
-1 11 2 17 5 13 3 -3 4 -12 1 -19z m1702 6 c2 -2 -25 -4 -60 -3 -47 1 -57 3
-39 9 22 7 89 3 99 -6z m-1401 -1 c-10 -2 -26 -2 -35 0 -10 3 -2 5 17 5 19 0
27 -2 18 -5z m72 -3 c0 -5 -2 -10 -4 -10 -3 0 -8 5 -11 10 -3 6 -1 10 4 10 6
0 11 -4 11 -10z m709 -5 c-12 -12 -107 -11 -120 2 -4 4 23 8 61 8 46 0 66 -3
59 -10z m-732 -19 c4 -3 -39 -6 -95 -6 -56 0 -102 3 -102 8 0 8 189 7 197 -2z
m1368 4 c4 -6 -10 -9 -37 -9 l-43 2 35 7 c19 4 36 8 37 9 1 0 5 -3 8 -9z
m-285 -20 c0 -5 -7 -10 -15 -10 -8 0 -15 5 -15 10 0 6 7 10 15 10 8 0 15 -4
15 -10z m-1244 -12 c4 -5 -27 -8 -70 -8 -42 0 -75 3 -73 8 3 4 34 7 70 7 36 0
69 -3 73 -7z m440 -23 c-10 -33 -13 -35 -58 -35 -42 0 -49 -3 -65 -30 -15 -26
-72 -70 -89 -70 -15 0 4 44 19 46 27 4 44 21 52 52 10 42 24 52 71 52 23 0 46
5 49 10 3 6 12 10 19 10 10 0 11 -7 2 -35z m1027 28 c-7 -2 -21 -2 -30 0 -10
3 -4 5 12 5 17 0 24 -2 18 -5z m-1350 -10 c-18 -2 -48 -2 -65 0 -18 2 -4 4 32
4 36 0 50 -2 33 -4z m136 -23 c-13 -9 -39 -2 -39 10 0 4 12 5 26 2 17 -3 22
-7 13 -12z m-109 0 c0 -5 -9 -10 -21 -10 -11 0 -17 5 -14 10 3 6 13 10 21 10
8 0 14 -4 14 -10z m-247 -7 c-7 -2 -19 -2 -25 0 -7 3 -2 5 12 5 14 0 19 -2 13
-5z m100 0 c-7 -2 -21 -2 -30 0 -10 3 -4 5 12 5 17 0 24 -2 18 -5z m1295 -7
c3 -3 -11 -6 -31 -6 -20 0 -37 4 -37 10 0 9 57 6 68 -4z m152 4 c0 -5 -5 -10
-11 -10 -5 0 -7 5 -4 10 3 6 8 10 11 10 2 0 4 -4 4 -10z m218 -4 c3 -3 -40 -6
-96 -6 -65 0 -103 4 -108 11 -5 9 20 10 96 6 56 -3 105 -8 108 -11z m-1638
-17 c0 -4 -37 -6 -82 -6 -59 -1 -71 1 -43 6 52 8 125 8 125 0z m55 1 c3 -5 -3
-10 -14 -10 -12 0 -21 5 -21 10 0 6 6 10 14 10 8 0 18 -4 21 -10z m75 0 c-20
-13 -63 -13 -55 0 3 6 21 10 38 10 24 0 28 -3 17 -10z m55 0 c-3 -5 -10 -10
-16 -10 -5 0 -9 5 -9 10 0 6 7 10 16 10 8 0 12 -4 9 -10z m45 0 c0 -5 -4 -10
-9 -10 -6 0 -13 5 -16 10 -3 6 1 10 9 10 9 0 16 -4 16 -10z m330 0 c-8 -5 -22
-10 -30 -10 -13 0 -13 1 0 10 8 5 22 10 30 10 13 0 13 -1 0 -10z m733 -7 c-7
-2 -19 -2 -25 0 -7 3 -2 5 12 5 14 0 19 -2 13 -5z m100 0 c-7 -2 -21 -2 -30 0
-10 3 -4 5 12 5 17 0 24 -2 18 -5z m47 -3 c0 -5 -2 -10 -4 -10 -3 0 -8 5 -11
10 -3 6 -1 10 4 10 6 0 11 -4 11 -10z m50 -6 c0 -2 -7 -4 -15 -4 -8 0 -15 4
-15 10 0 5 7 7 15 4 8 -4 15 -8 15 -10z m130 0 c0 -1 -28 -2 -62 -2 -44 1 -54
3 -33 7 29 6 95 3 95 -5z m-1610 -24 c16 0 31 -4 34 -8 3 -5 -40 -9 -95 -10
-62 -1 -98 2 -94 8 3 6 28 10 55 10 27 0 52 5 56 12 6 9 9 9 12 0 2 -7 17 -12
32 -12z m53 13 c-7 -2 -19 -2 -25 0 -7 3 -2 5 12 5 14 0 19 -2 13 -5z m124 1
c-3 -3 -12 -4 -19 -1 -8 3 -5 6 6 6 11 1 17 -2 13 -5z m1133 -5 c0 -5 -9 -9
-19 -9 -11 0 -22 4 -25 9 -3 5 6 9 19 9 14 0 25 -4 25 -9z m298 -14 c9 -9
-102 -5 -118 5 -10 6 6 8 49 5 35 -2 66 -7 69 -10z m-1480 -12 c-10 -2 -26 -2
-35 0 -10 3 -2 5 17 5 19 0 27 -2 18 -5z m282 -2 c0 -26 -21 -60 -42 -66 -13
-4 -33 -17 -45 -28 -14 -13 -23 -16 -23 -8 0 7 14 25 30 39 17 15 30 31 30 37
0 15 21 35 37 35 7 0 13 -4 13 -9z m700 5 c0 -3 -4 -8 -10 -11 -5 -3 -10 -1
-10 4 0 6 5 11 10 11 6 0 10 -2 10 -4z m-559 -59 c-5 -14 -19 -28 -30 -32 -12
-3 -24 -17 -27 -30 -5 -21 -62 -75 -78 -75 -19 0 -1 42 25 60 16 12 28 28 26
35 -7 17 3 27 46 50 20 11 37 24 38 30 0 6 2 6 5 -1 3 -6 0 -23 -5 -37z m284
33 c-3 -5 -11 -10 -16 -10 -6 0 -7 5 -4 10 3 6 11 10 16 10 6 0 7 -4 4 -10z
m-747 -7 c-43 -2 -113 -2 -155 0 -43 1 -8 3 77 3 85 0 120 -2 78 -3z m217 -18
c-30 -25 -75 -34 -75 -15 0 6 14 10 30 10 20 0 30 5 30 15 0 9 9 15 23 15 21
-1 20 -2 -8 -25z m858 18 c-7 -2 -19 -2 -25 0 -7 3 -2 5 12 5 14 0 19 -2 13
-5z m372 -13 c27 -7 24 -8 -21 -9 -69 -1 -174 10 -169 19 5 8 151 1 190 -10z
m-580 -10 c3 -5 1 -10 -4 -10 -6 0 -11 5 -11 10 0 6 2 10 4 10 3 0 8 -4 11
-10z m-872 -7 c-40 -2 -106 -2 -145 0 -40 1 -8 3 72 3 80 0 112 -2 73 -3z
m1107 -3 c0 -13 -30 -13 -50 0 -11 7 -7 10 18 10 17 0 32 -4 32 -10z m40 0 c0
-5 -4 -10 -10 -10 -5 0 -10 5 -10 10 0 6 5 10 10 10 6 0 10 -4 10 -10z m347
-14 c2 -2 -30 -69 -39 -81 -4 -5 -26 -35 -48 -65 -54 -73 -178 -174 -270 -218
-41 -20 -77 -36 -80 -36 -3 -1 -18 -6 -35 -12 -55 -20 -100 -32 -150 -40 -27
-4 -59 -9 -70 -11 -11 -2 -67 -5 -125 -7 -231 -9 -453 55 -636 184 -49 35
-166 158 -212 223 l-33 46 200 1 199 0 6 -25 c8 -32 23 -32 47 -1 11 14 27 24
37 24 9 -1 27 2 40 6 28 9 30 -14 2 -39 -32 -29 -20 -79 24 -96 5 -2 10 6 11
18 2 27 2 28 39 40 16 5 30 17 32 28 1 10 12 27 23 39 l21 20 0 -29 c-2 -65
-134 -240 -225 -296 -27 -17 -22 -26 10 -19 6 1 21 4 35 7 38 7 120 62 170
116 l46 48 38 -16 c21 -9 40 -14 43 -12 2 3 -3 19 -12 37 -15 29 -15 35 -1 71
9 22 16 49 16 60 0 18 2 18 25 -7 22 -24 23 -29 11 -43 -33 -39 50 -143 89
-111 19 16 19 30 0 30 -19 0 -19 15 1 45 15 23 15 28 0 65 -16 41 -8 57 9 18
6 -12 21 -25 35 -28 18 -4 25 -13 26 -31 1 -53 24 -88 66 -100 47 -12 74 2 39
20 -25 14 -26 29 -5 75 16 33 16 35 -5 65 -26 36 -21 39 19 10 20 -15 36 -20
54 -15 23 6 26 3 26 -19 0 -49 16 -65 68 -65 36 0 50 5 59 20 18 28 7 48 -23
42 -28 -5 -30 5 -8 36 10 15 22 21 33 17 9 -3 45 -8 81 -10 36 -2 111 -7 166
-10 69 -5 104 -3 108 4 5 7 -8 11 -36 12 -24 0 -52 2 -63 4 -11 2 -50 5 -87 6
-38 1 -68 6 -68 10 0 7 269 2 277 -5z m-1655 -284 c-23 -7 -11 -20 26 -25 27
-5 54 -23 103 -69 37 -35 69 -71 72 -80 4 -10 13 -18 21 -18 7 0 16 -6 19 -14
7 -19 69 -29 101 -16 22 8 32 6 51 -8 26 -18 27 -39 2 -34 -8 1 -18 -6 -22
-17 -6 -21 -58 -46 -74 -36 -6 3 -11 13 -11 21 0 11 -4 12 -19 3 -24 -16 -51
-5 -51 20 0 13 -8 21 -22 23 -16 2 -26 13 -33 38 -13 45 -23 60 -40 60 -15 0
-15 -55 -1 -79 14 -23 -4 -25 -33 -3 -18 13 -32 17 -38 11 -17 -17 -37 -1 -67
53 -19 34 -25 53 -18 56 7 2 12 8 12 14 0 6 -6 8 -14 5 -17 -7 -36 11 -36 34
0 23 59 81 73 72 8 -5 8 -8 -1 -11z m-13 -224 c6 -16 4 -28 -7 -40 -21 -24
-37 -22 -56 7 -22 33 -20 43 7 48 43 8 48 7 56 -15z"/>
<path d="M898 1492 c-11 -13 -10 -15 9 -10 12 3 24 1 26 -6 3 -7 8 -8 15 -1 8
7 4 13 -13 21 -20 10 -27 9 -37 -4z"/>
<path d="M1214 1475 c-8 -21 6 -41 17 -24 12 19 11 39 -1 39 -6 0 -13 -7 -16
-15z"/>
<path d="M1052 1463 c-6 -2 -10 -9 -7 -13 7 -11 35 -2 35 11 0 10 -8 10 -28 2z"/>
<path d="M1155 1450 c-10 -11 -15 -23 -10 -28 4 -4 10 -1 12 6 3 6 9 9 15 6
10 -6 28 12 28 29 0 14 -27 7 -45 -13z"/>
<path d="M1065 1350 c-3 -5 -1 -10 4 -10 6 0 11 5 11 10 0 6 -2 10 -4 10 -3 0
-8 -4 -11 -10z"/>
<path d="M1333 1249 c-13 -34 -10 -49 11 -49 15 0 24 34 18 63 -5 26 -16 21
-29 -14z"/>
<path d="M1320 1180 c0 -10 26 -20 34 -13 11 12 6 19 -14 20 -11 1 -20 -2 -20
-7z"/>
<path d="M1318 1138 c8 -8 17 -8 34 0 22 10 21 11 -11 11 -27 1 -32 -2 -23
-11z"/>
<path d="M1310 1111 c0 -5 11 -8 25 -8 14 0 25 3 25 8 0 5 -11 9 -25 9 -14 0
-25 -4 -25 -9z"/>
<path d="M1305 1080 c3 -5 12 -7 20 -3 21 7 19 13 -6 13 -11 0 -18 -4 -14 -10z"/>
<path d="M1318 1063 c-11 -3 -18 -14 -18 -29 0 -22 4 -25 33 -22 31 3 42 23
13 23 -8 0 -18 4 -22 8 -4 4 2 7 14 7 12 0 22 5 22 10 0 10 -12 11 -42 3z"/>
<path d="M1295 990 c3 -6 20 -10 37 -10 39 0 29 12 -13 17 -18 2 -28 -1 -24
-7z"/>
<path d="M1286 953 c-7 -17 9 -33 32 -33 6 0 12 4 12 9 0 5 -6 12 -12 14 -7 3
1 6 17 7 30 2 30 2 5 10 -39 12 -47 11 -54 -7z"/>
<path d="M1264 905 c22 -17 46 -20 46 -6 0 5 -10 11 -22 15 -37 9 -44 6 -24
-9z"/>
<path d="M1200 860 c0 -12 50 -34 58 -25 8 8 -9 22 -35 30 -14 4 -23 2 -23 -5z"/>
<path d="M1021 816 c-8 -10 -9 -16 -1 -21 5 -3 10 -3 10 1 0 3 6 1 14 -5 11
-9 15 -9 19 1 4 10 6 10 6 1 1 -14 21 -18 21 -5 -1 29 -51 50 -69 28z"/>
<path d="M660 1340 c0 -5 4 -10 9 -10 6 0 13 5 16 10 3 6 -1 10 -9 10 -9 0
-16 -4 -16 -10z"/>
<path d="M156 304 c-10 -27 -7 -39 7 -20 12 17 15 17 30 2 9 -9 18 -16 19 -16
11 4 37 -14 32 -22 -4 -6 3 -5 15 1 11 7 21 16 21 22 0 14 -69 42 -86 35 -8
-3 -14 -1 -14 4 0 16 -17 11 -24 -6z"/>
<path d="M270 240 c-14 -10 -22 -21 -19 -24 2 -3 18 6 34 19 35 29 22 33 -15
5z"/>
<path d="M302 229 c-21 -8 -40 -35 -31 -44 2 -2 17 8 33 21 32 28 32 36 -2 23z"/>
<path d="M511 81 c-8 -6 -9 -11 -3 -15 6 -3 14 -1 17 5 9 14 2 20 -14 10z"/>
<path d="M1930 1985 c0 -35 15 -55 42 -55 25 0 26 60 1 61 -15 0 -15 2 2 8 17
7 15 9 -13 13 -30 4 -32 3 -32 -27z"/>
<path d="M1979 1578 c-1 -7 -2 -30 -4 -50 -2 -26 1 -38 9 -38 16 0 21 86 6 95
-5 3 -10 0 -11 -7z"/>
<path d="M7 1545 c2 -7 27 -15 56 -18 29 -4 53 -11 55 -17 4 -12 32 -14 32 -2
0 15 -45 34 -96 41 -38 6 -51 4 -47 -4z"/>
<path d="M0 1500 c0 -5 5 -10 12 -10 9 0 9 -3 0 -12 -16 -16 -15 -58 1 -58 31
1 52 43 35 74 -10 17 -48 22 -48 6z"/>
<path d="M125 1440 c-3 -5 -2 -10 3 -10 5 0 8 -20 7 -45 -1 -42 8 -65 22 -51
3 3 2 30 -2 61 -6 52 -16 67 -30 45z"/>
<path d="M0 1396 c0 -9 8 -12 25 -8 14 2 25 8 25 13 0 5 -11 9 -25 9 -14 0
-25 -6 -25 -14z"/>
<path d="M6 1371 c-4 -5 0 -12 6 -15 10 -5 10 -7 1 -12 -7 -3 -13 -14 -13 -25
0 -10 6 -19 13 -19 9 0 8 -3 -2 -9 -11 -7 -10 -13 4 -35 22 -33 28 -27 31 25
2 35 0 39 -17 34 -11 -4 -19 -2 -19 4 0 6 12 11 27 11 21 0 24 3 15 12 -8 8
-9 15 -1 25 9 10 6 13 -14 13 -14 0 -28 -4 -31 -9z"/>
<path d="M1938 1342 c-47 -4 -50 -19 -5 -25 31 -4 31 -4 -5 -5 -59 -3 -45 -22
16 -22 50 0 54 2 54 24 0 29 -9 32 -60 28z"/>
<path d="M140 1300 c0 -5 5 -10 11 -10 5 0 7 5 4 10 -3 6 -8 10 -11 10 -2 0
-4 -4 -4 -10z"/>
<path d="M140 1270 c0 -5 5 -10 10 -10 6 0 10 5 10 10 0 6 -4 10 -10 10 -5 0
-10 -4 -10 -10z"/>
<path d="M1888 1274 c-4 -3 -3 -17 2 -30 5 -13 6 -24 1 -24 -5 0 -8 -11 -8
-25 0 -28 12 -30 82 -16 37 8 38 9 9 10 -38 1 -46 9 -33 32 8 16 6 19 -11 19
-11 0 -20 5 -20 10 0 6 3 9 8 9 25 -4 82 2 82 9 0 10 -103 16 -112 6z"/>
<path d="M1970 1240 c0 -5 7 -10 15 -10 8 0 15 5 15 10 0 6 -7 10 -15 10 -8 0
-15 -4 -15 -10z"/>
<path d="M1950 1210 c0 -5 5 -10 10 -10 6 0 10 5 10 10 0 6 -4 10 -10 10 -5 0
-10 -4 -10 -10z"/>
<path d="M1980 1210 c0 -5 5 -10 10 -10 6 0 10 5 10 10 0 6 -4 10 -10 10 -5 0
-10 -4 -10 -10z"/>
<path d="M10 1190 c0 -5 5 -10 10 -10 6 0 10 5 10 10 0 6 -4 10 -10 10 -5 0
-10 -4 -10 -10z"/>
<path d="M1991 844 c0 -11 3 -14 6 -6 3 7 2 16 -1 19 -3 4 -6 -2 -5 -13z"/>
<path d="M1992 785 c0 -16 2 -22 5 -12 2 9 2 23 0 30 -3 6 -5 -1 -5 -18z"/>
<path d="M5 578 c0 -17 6 -33 13 -36 13 -4 16 25 6 52 -10 26 -20 18 -19 -16z"/>
<path d="M1965 570 c-3 -5 -2 -10 4 -10 5 0 13 5 16 10 3 6 2 10 -4 10 -5 0
-13 -4 -16 -10z"/>
<path d="M1960 540 c0 -5 4 -10 9 -10 6 0 13 5 16 10 3 6 -1 10 -9 10 -9 0
-16 -4 -16 -10z"/>
<path d="M10 515 c8 -10 9 -15 2 -15 -6 0 -9 -7 -6 -15 4 -8 14 -15 23 -15 10
0 18 7 18 15 0 8 -5 15 -10 15 -5 0 -7 7 -3 15 4 10 -1 15 -16 15 -17 0 -18
-2 -8 -15z"/>
<path d="M1945 510 c4 -6 12 -8 18 -4 7 3 4 -1 -6 -9 -18 -15 -18 -15 0 -20
14 -4 13 -5 -6 -6 -16 -1 -21 -6 -18 -15 3 -8 1 -17 -6 -19 -7 -3 -1 -9 13
-15 l25 -11 -30 -2 c-18 -1 -23 -3 -12 -6 9 -2 17 -8 17 -13 0 -5 -8 -11 -17
-13 -13 -3 -11 -5 7 -7 25 -2 25 -2 -5 -15 l-30 -14 28 -1 c16 0 26 -4 22 -10
-3 -5 -12 -7 -19 -4 -8 3 -17 1 -21 -5 -4 -8 8 -10 37 -7 l43 4 1 101 c1 100
1 101 -23 101 -14 0 -21 -4 -18 -10z"/>
<path d="M1949 289 c16 -6 28 -6 35 1 7 7 -1 10 -24 9 -33 0 -34 -1 -11 -10z"/>
<path d="M1800 249 c0 -6 -5 -7 -10 -4 -17 11 -52 -5 -46 -21 4 -11 0 -13 -18
-8 -19 4 -26 1 -31 -15 -3 -12 -12 -21 -19 -21 -22 0 -40 -27 -25 -36 7 -4 15
-2 17 4 2 7 15 12 28 12 13 0 24 5 24 11 0 5 5 7 10 4 6 -3 10 -2 10 4 0 5 -3
11 -7 14 -5 2 -2 2 5 0 21 -5 43 22 29 36 -6 6 -7 11 -1 11 6 0 15 -5 22 -12
9 -9 12 -9 12 1 0 7 4 10 9 6 5 -3 12 -1 15 4 3 5 -1 11 -9 15 -8 3 -15 1 -15
-5z"/>
<path d="M1860 220 c-15 -28 -4 -61 18 -53 32 12 46 34 35 52 -15 24 -40 25
-53 1z"/>
<path d="M1614 129 c-3 -6 -1 -16 5 -22 8 -8 11 -5 11 11 0 24 -5 28 -16 11z"/>
<path d="M1668 125 c-15 -8 -29 -23 -33 -34 -3 -10 -14 -26 -25 -36 -19 -18
-20 -17 -20 5 0 22 -1 23 -20 5 -11 -10 -20 -24 -20 -31 0 -7 -8 -18 -17 -23
-13 -7 50 -10 210 -11 137 0 227 4 227 10 0 5 -5 21 -12 35 -8 18 -19 25 -40
25 -28 0 -39 22 -18 35 18 11 11 21 -14 20 -14 -1 -31 -7 -40 -14 -10 -9 -20
-9 -34 -2 -15 8 -24 5 -42 -14 -23 -25 -81 -50 -101 -43 -6 2 3 18 20 36 48
49 37 68 -21 37z m210 -52 c5 -18 -45 -40 -60 -25 -8 8 -8 15 2 27 15 18 51
16 58 -2z"/>
</g>
</svg>
